# xmcd
#
# Track frame offsets:
#	150
#	15409
#	31831
#	49078
#	63265
#	78281
#	95965
#	112250
#	128144
#	145634
#	159429
#
# Disc length: 2297 seconds
#
# Revision: 0
# Processed by: cddbd v1.5.2PL0 Copyright (c) Steve Scherf et al.
# Submitted via: dBpowerAMP V4.0
#
DISCID=8908f70b
DTITLE=Toby Keith - Big Dog Daddy 
DYEAR=2007
DGENRE=Country
TTITLE0=High Maintenance Woman
TTITLE1=Love Me If You Can
TTITLE2=White Rose
TTITLE3=Get My Drink On
TTITLE4=Wouldn't Wanna Be Ya
TTITLE5=Big Dog Daddy
TTITLE6=I Know She Hung The Moon
TTITLE7=Pump Jack
TTITLE8=Burnin' Moonlight
TTITLE9=Walk It Off
TTITLE10=Hit It
EXTD=
EXTT0=
EXTT1=
EXTT2=
EXTT3=
EXTT4=
EXTT5=
EXTT6=
EXTT7=
EXTT8=
EXTT9=
EXTT10=
PLAYORDER=
